<svg version="1.1" xmlns="http://www.w3.org/2000/svg" x="0px" y="0px" width="26px" height="26px">

<path d="M24.997559,3.746094V1.259766c0-0.349609-0.09668-0.641602-0.291504-0.875
	C24.511719,0.151367,24.258789,0.022949,23.947754,0H1.049805C0.758301,0,0.515137,0.12793,0.320801,0.384766
	C0.125977,0.641602,0.019531,0.933105,0,1.259766v2.486328c0,0.349609,0.106445,0.641602,0.320801,0.875
	C0.534668,4.854492,0.777832,4.98291,1.049805,5.005859h22.897949c0.291504,0,0.544434-0.12793,0.758301-0.384766
	C24.92041,4.364258,25.01709,4.072754,24.997559,3.746094z M24.997559,13.758789v-2.520996
	c0-0.32666-0.09668-0.618652-0.291504-0.875488c-0.194336-0.256348-0.447266-0.373047-0.758301-0.349609H1.049805
	c-0.291504,0-0.534668,0.116699-0.729004,0.349609C0.125977,10.596191,0.019531,10.887695,0,11.237793v2.520996
	c0,0.32666,0.106445,0.618164,0.320801,0.875c0.213867,0.256836,0.457031,0.373535,0.729004,0.350586h22.897949
	c0.291504,0,0.544434-0.117188,0.758301-0.350586C24.92041,14.400391,25.01709,14.108887,24.997559,13.758789z M24.997559,23.736328
	v-2.485352c0-0.350098-0.09668-0.64209-0.291504-0.875c-0.194336-0.233398-0.447266-0.362305-0.758301-0.385742H1.049805
	c-0.291504,0-0.534668,0.128906-0.729004,0.385742C0.125977,20.632324,0.019531,20.924805,0,21.250977v2.485352
	c0,0.350586,0.106445,0.65332,0.320801,0.910645c0.213867,0.256348,0.457031,0.373535,0.729004,0.350098h22.897949
	c0.291504,0,0.544434-0.116699,0.758301-0.350098C24.92041,24.413574,25.01709,24.109863,24.997559,23.736328z"/>
</svg>
